<svg width="104" height="145" viewBox="0 0 104 145" fill="none" xmlns="http://www.w3.org/2000/svg">
<path d="M62.8523 109.733C66.5113 102.686 72.9628 82.6841 69.4963 59.0523C65.1633 29.5125 52.7419 27.7749 55.3417 2C47.8311 9.1436 33.272 28.7016 35.1208 49.7849C37.4318 76.139 82.7844 86.2752 51.5864 102.493C20.3884 118.711 4.78946 121.897 7.67816 135.219C10.5669 148.54 57.3638 142.169 74.696 135.219C92.0282 128.268 111.094 118.421 97.2279 100.755C83.3621 83.0895 27.8991 96.9906 18.6552 100.755C9.41138 104.52 -4.74325 113.788 5.65607 120.449C16.0554 127.11 50.4309 127.978 69.4963 124.213C88.5618 120.449 98.6722 113.208 91.4505 102.493" stroke="#D0CEB9" stroke-width="3" stroke-linejoin="round"/>
</svg>
